# xmcd
#
# Track frame offsets:
#	150
#	22437
#	44147
#	61447
#	81054
#	102072
#	122515
#	140360
#	161392
#	177259
#
# Disc length: 2570 seconds
#
# Revision: 0
# Processed by: cddbd v1.4b42PL0 Copyright (c) Steve Scherf et al.
# Submitted via: EasyCDDAExtractor 4.5.0.1
#
DISCID=850a080a
DTITLE=Shin Seung Hun V
DYEAR=1900
DGENRE=Ballad
TTITLE0=나보다 조금더 높은 곳에 니가 있을뿐
TTITLE1=운명
TTITLE2=내 방식대로의 사랑 (House Version)
TTITLE3=I Love You
TTITLE4=Your Song (Duet with Jon. B)
TTITLE5=순간을 영원처럼
TTITLE6=이쯤해서
TTITLE7=Happy Birthday to Me
TTITLE8=Game of R. O. K.
TTITLE9=내 방식대로의 사랑 (Mambo Version)
EXTD=
EXTT0=
EXTT1=
EXTT2=
EXTT3=
EXTT4=
EXTT5=
EXTT6=
EXTT7=
EXTT8=
EXTT9=
PLAYORDER=
